# xmcd CD database file
# Copyright (C) 1993-1998 Ti Kan
#
# Track frame offsets:
#	190
#	14452
#	27522
#	40787
#	53962
#	67065
#	79867
#	94135
#	106307
#	119460
#	131640
#	145502
#
# Disc length: 2123 seconds
#
# Revision: 1
# Processed by: cddbd v1.4b41PL1 Copyright (c) Steve Scherf et al.
# Submitted via: NotifyCDPlayer(CDDB) 1.51.1
#
DISCID=a508490c
DTITLE=Dinah Washington - Mellow Mama
DYEAR=1900
DGENRE=
TTITLE0=Mellow Mama Blues
TTITLE1=All or Nothing Blues
TTITLE2=Rich Man's Blues
TTITLE3=Chewin' Mama Blues
TTITLE4=Blues for a Day
TTITLE5=Wise Woman Blues
TTITLE6=My Voot is Really Vout
TTITLE7=Pacific Coast Blues
TTITLE8=Beggin' Mama Blues
TTITLE9=Walking Blues
TTITLE10=No Voot No Boot
TTITLE11=My Lovin' Papa
EXTD=Lucky Thompson: tenor saxophone\nKarl George: trumpet\nJewel Grant: alt
EXTD=o saxophone\nGene Porter: clarinet, alto saxophone, baritone saxophone\
EXTD=nMilt Jackson: vibes\nWilbert Baranco: piano\nCharles Mingus: bass\nLee
EXTD=Young: drums\n\nRecorded in Los Angeles, on December 10, 12, and 13, 1
EXTD=945
EXTT0=
EXTT1=
EXTT2=
EXTT3=
EXTT4=
EXTT5=
EXTT6=
EXTT7=
EXTT8=
EXTT9=
EXTT10=
EXTT11=
PLAYORDER=
